<?xml version="1.0" standalone="no"?>
<!DOCTYPE svg PUBLIC "-//W3C//DTD SVG 20010904//EN"
 "http://www.w3.org/TR/2001/REC-SVG-20010904/DTD/svg10.dtd">
<svg version="1.0" xmlns="http://www.w3.org/2000/svg"
 width="981.000000pt" height="981.000000pt" viewBox="0 0 981.000000 981.000000"
 preserveAspectRatio="xMidYMid meet">
<metadata>
Created by potrace 1.11, written by Peter Selinger 2001-2013
</metadata>
<g transform="translate(0.000000,981.000000) scale(0.100000,-0.100000)"
fill="#000000" stroke="none">
<path d="M4600 9769 c-905 -51 -1805 -368 -2550 -898 -509 -363 -959 -836
-1289 -1355 -354 -556 -584 -1149 -695 -1786 -57 -331 -61 -384 -61 -845 0
-461 4 -514 61 -845 147 -847 512 -1630 1075 -2305 110 -131 366 -393 504
-514 604 -532 1303 -899 2069 -1086 192 -46 385 -82 606 -112 197 -26 942 -26
1140 0 720 96 1288 286 1888 629 594 340 1150 849 1549 1418 412 587 688 1248
813 1939 236 1319 -71 2669 -853 3745 -256 353 -589 701 -927 967 -950 749
-2115 1116 -3330 1048z m-860 -4884 l0 -2245 -205 0 -205 0 0 2245 0 2245 205
0 205 0 0 -2245z m3455 2192 c-375 -251 -3045 -2017 -3050 -2017 -3 0 -5 114
-5 253 l1 252 929 595 928 595 -929 3 -929 2 0 185 0 185 1567 0 1568 0 -80
-53z m172 -1874 c-2 -2 -419 -2 -926 -1 l-922 3 923 611 923 611 3 -610 c1
-336 1 -612 -1 -614z m-4427 -148 c0 -326 -1 -345 -17 -336 -10 6 -130 84
-266 174 l-248 164 258 171 c142 95 261 172 266 172 4 0 7 -155 7 -345z m2775
-1208 c858 -654 1564 -1193 1570 -1198 5 -5 -149 -9 -366 -9 l-376 0 -1206
936 -1207 936 0 269 c0 214 3 269 13 263 6 -4 714 -543 1572 -1197z m1645 167
c0 -537 -3 -674 -12 -668 -17 10 -1800 1324 -1812 1335 -6 5 387 9 907 9 l917
0 0 -676z"/>
<path d="M6605 5732 l-571 -377 570 -3 c313 -1 571 -1 573 1 2 2 2 173 1 380
l-3 376 -570 -377z"/>
</g>
</svg>
